<?xml version="1.0" encoding="UTF-8" standalone="yes"?>
<!DOCTYPE svg PUBLIC "-//W3C//DTD SVG 1.1//EN" "http://www.w3.org/Graphics/SVG/1.1/DTD/svg11.dtd">

<svg width="150" height="50" viewBox="0 0 150 50" xmlns="http://www.w3.org/2000/svg" xmlns:xlink="http://www.w3.org/1999/xlink" version="1.1" baseProfile="full">
    <g transform="scale(1,-1) translate(0,-50)">
        <path d="M 33.263715 62.115942 L 110.491561 62.115942 L 130.435016 12.257304 L 135.102633 12.257304 L 75.272268 163.742696 L 69.755994 163.742696 L 8.440478 12.257304 L 13.108095 12.257304 Z M 108.794246 66.359230 L 34.961030 66.359230 L 72.301967 159.499407 L 72.726295 159.499407 Z M 201.316234 163.742696 L 159.095515 17.561415 L 158.671186 17.561415 L 114.328824 163.742696 L 108.176056 163.742696 L 64.470187 17.561415 L 64.045858 17.561415 L 21.188647 163.742696 L 16.945358 163.742696 L 61.499885 12.257304 L 67.228324 12.257304 L 110.934193 158.438585 L 111.358522 158.438585 L 155.913049 12.257304 L 161.641488 12.257304 L 205.559522 163.742696 Z M 188.817875 121.203731 L 193.061163 121.203731 Q 192.424670 133.933596 188.181381 142.738419 Q 183.938093 151.543242 176.830585 156.953434 Q 169.723077 162.363627 160.281761 164.803518 Q 150.840445 167.243408 139.595731 167.243408 Q 130.472661 167.243408 121.243509 165.333929 Q 112.014357 163.424449 104.588603 158.968996 Q 97.162848 154.513544 92.495231 146.981707 Q 87.827614 139.449870 87.827614 128.205156 Q 87.827614 117.172607 92.283067 110.277263 Q 96.738519 103.381920 104.058192 99.244714 Q 111.377864 95.107508 120.500934 92.773699 Q 129.624003 90.439891 138.747073 88.318247 Q 147.445814 86.196602 156.887130 84.181041 Q 166.328447 82.165479 174.072448 78.240437 Q 181.816449 74.315395 186.802313 67.632216 Q 191.788176 60.949037 191.788176 49.492159 Q 191.788176 39.732596 187.438806 32.731170 Q 183.089436 25.729745 176.088010 21.274292 Q 169.086584 16.818839 160.281761 14.803277 Q 151.476938 12.787715 142.566033 12.787715 Q 130.472661 12.787715 120.394851 15.439771 Q 110.317042 18.091826 102.997369 24.032429 Q 95.677697 29.973033 91.646573 39.414349 Q 87.615449 48.855666 87.615449 62.434188 L 83.372161 62.434188 Q 83.159997 48.007008 87.509367 37.823116 Q 91.858738 27.639224 99.814903 21.168210 Q 107.771069 14.697195 118.697536 11.726893 Q 129.624003 8.756592 142.566033 8.756592 Q 152.325596 8.756592 161.872994 10.984318 Q 171.420393 13.212044 179.058312 18.197908 Q 186.696231 23.183772 191.363848 30.821691 Q 196.031465 38.459609 196.031465 49.279995 Q 196.031465 61.161202 191.894259 68.162627 Q 187.757053 75.164053 180.755627 79.407341 Q 173.754201 83.650630 164.312885 86.196602 Q 154.871569 88.742575 144.263348 91.500713 Q 134.503785 93.834521 125.168551 95.956166 Q 115.833316 98.077810 108.513644 101.896769 Q 101.193972 105.715729 96.632437 111.868497 Q 92.070902 118.021265 92.070902 128.205156 Q 92.070902 138.389048 96.526355 145.072227 Q 100.981808 151.755406 107.877151 155.786530 Q 114.772494 159.817654 123.259071 161.408887 Q 131.745647 163.000120 139.595731 163.000120 Q 149.779623 163.000120 158.690528 160.878476 Q 167.601433 158.756832 174.072448 153.770968 Q 180.543463 148.785104 184.468504 140.828939 Q 188.393546 132.872773 188.817875 121.203731 Z" transform="scale(0.250000,0.250000) translate(193.000000,12.000000)" opacity="1.000000"></path>
    </g>
</svg>